<svg width="17" height="17" viewBox="0 0 17 17" fill="none" xmlns="http://www.w3.org/2000/svg">
<path d="M9.84518 15.7648L9.84518 4.29556L14.9871 9.30631C15.398 9.70675 16.0724 9.70675 16.4833 9.30631C16.8942 8.90586 16.8942 8.25898 16.4833 7.85853L9.53961 1.09196C9.12868 0.691515 8.46487 0.691515 8.05393 1.09196L1.0997 7.84826C0.688771 8.24871 0.688771 8.89559 1.0997 9.29604C1.51063 9.69649 2.17445 9.69649 2.58538 9.29604L7.73783 4.29556L7.73783 15.7648C7.73783 16.3296 8.21199 16.7916 8.7915 16.7916C9.37102 16.7916 9.84518 16.3296 9.84518 15.7648Z" fill="url(#paint0_linear_16941_55095)"/>
<defs>
<linearGradient id="paint0_linear_16941_55095" x1="2.93783" y1="-0.0551882" x2="3.43909" y2="14.3773" gradientUnits="userSpaceOnUse">
<stop stop-color="#007985"/>
<stop offset="0.38" stop-color="#007985"/>
<stop offset="1" stop-color="#007985"/>
</linearGradient>
</defs>
</svg>
